<svg width="277" height="32" viewBox="0 0 277 32" fill="none" xmlns="http://www.w3.org/2000/svg">
<g clip-path="url(#clip0_2_24)">
<path d="M19.3516 3.24609H2.15234V14.4844H17.1094V16.6719H2.15234V31H-0.0351562V1.05859H19.3516V3.24609ZM25.8867 1.05859H36.7695C38.2279 1.05859 39.6315 1.17708 40.9805 1.41406C42.3294 1.65104 43.5143 2.08854 44.5352 2.72656C45.5742 3.34635 46.3945 4.19401 46.9961 5.26953C47.6159 6.34505 47.9258 7.71224 47.9258 9.37109C47.9258 12.306 46.9961 14.5391 45.1367 16.0703C43.2956 17.6016 40.5977 18.3672 37.043 18.3672H28.0742V31H25.8867V1.05859ZM28.0742 16.1797H37.125C38.6562 16.1797 39.9596 16.0339 41.0352 15.7422C42.1107 15.4505 42.9857 15.0221 43.6602 14.457C44.3529 13.8919 44.8542 13.1992 45.1641 12.3789C45.474 11.5404 45.6289 10.5742 45.6289 9.48047C45.6289 8.14974 45.3919 7.07422 44.918 6.25391C44.4622 5.43359 43.8333 4.80469 43.0312 4.36719C42.2474 3.91146 41.3359 3.61068 40.2969 3.46484C39.2578 3.31901 38.1641 3.24609 37.0156 3.24609H28.0742V16.1797ZM71.0859 19.707H54.6523V17.3281H71.0859V19.707ZM99.9062 3.24609H89.4336V31H87.2461V3.24609H76.8828V1.05859H99.9062V3.24609ZM116.285 31.5469C114.262 31.5469 112.493 31.3372 110.98 30.918C109.467 30.4805 108.191 29.8698 107.152 29.0859C106.132 28.2839 105.348 27.3268 104.801 26.2148C104.254 25.0846 103.935 23.8177 103.844 22.4141H106.004C106.223 23.763 106.633 24.8841 107.234 25.7773C107.836 26.6706 108.574 27.3815 109.449 27.9102C110.342 28.4388 111.354 28.8125 112.484 29.0312C113.615 29.25 114.818 29.3594 116.094 29.3594C117.424 29.3594 118.618 29.2227 119.676 28.9492C120.751 28.6576 121.663 28.2474 122.41 27.7188C123.176 27.1719 123.759 26.5247 124.16 25.7773C124.561 25.0117 124.762 24.1549 124.762 23.207C124.762 22.2044 124.589 21.3659 124.242 20.6914C123.896 19.9987 123.312 19.3971 122.492 18.8867C121.672 18.3763 120.587 17.9206 119.238 17.5195C117.908 17.1185 116.249 16.7083 114.262 16.2891C112.621 15.9245 111.208 15.5052 110.023 15.0312C108.857 14.5573 107.891 14.0104 107.125 13.3906C106.359 12.7526 105.794 12.0326 105.43 11.2305C105.065 10.4102 104.883 9.46224 104.883 8.38672C104.883 7.22005 105.129 6.15365 105.621 5.1875C106.113 4.22135 106.806 3.39193 107.699 2.69922C108.611 2.00651 109.695 1.46875 110.953 1.08594C112.229 0.703125 113.633 0.511719 115.164 0.511719C116.695 0.511719 118.099 0.69401 119.375 1.05859C120.651 1.40495 121.763 1.91536 122.711 2.58984C123.677 3.26432 124.452 4.08464 125.035 5.05078C125.637 6.01693 126.02 7.11068 126.184 8.33203H124.078C123.878 7.52995 123.549 6.78255 123.094 6.08984C122.638 5.39714 122.046 4.80469 121.316 4.3125C120.605 3.80208 119.749 3.41016 118.746 3.13672C117.762 2.84505 116.632 2.69922 115.355 2.69922C112.676 2.69922 110.643 3.19141 109.258 4.17578C107.891 5.16016 107.207 6.50911 107.207 8.22266C107.207 9.00651 107.335 9.6901 107.59 10.2734C107.845 10.8568 108.273 11.3854 108.875 11.8594C109.495 12.3151 110.306 12.7253 111.309 13.0898C112.311 13.4362 113.56 13.7643 115.055 14.0742C115.93 14.2565 116.832 14.4479 117.762 14.6484C118.691 14.849 119.594 15.0859 120.469 15.3594C121.362 15.6328 122.21 15.9701 123.012 16.3711C123.814 16.7721 124.507 17.2643 125.09 17.8477C125.691 18.431 126.165 19.1328 126.512 19.9531C126.876 20.7552 127.059 21.7122 127.059 22.8242C127.059 24.1003 126.785 25.276 126.238 26.3516C125.71 27.4089 124.962 28.3294 123.996 29.1133C123.048 29.8789 121.909 30.4805 120.578 30.918C119.266 31.3372 117.835 31.5469 116.285 31.5469ZM150.492 19.707H134.059V17.3281H150.492V19.707ZM182.402 31H179.777L176.113 21.375H161.375C160.846 22.888 160.272 24.4922 159.652 26.1875C159.033 27.8646 158.44 29.4688 157.875 31H155.551C156.535 28.4115 157.501 25.8776 158.449 23.3984C159.415 20.9193 160.372 18.4583 161.32 16.0156C162.268 13.5547 163.216 11.0846 164.164 8.60547C165.13 6.1263 166.105 3.60156 167.09 1.03125H170.18L182.402 31ZM175.484 19.6523L168.539 3L161.949 19.6523H175.484ZM207.695 3.24609H197.223V31H195.035V3.24609H184.672V1.05859H207.695V3.24609Z" fill="black"/>
<path d="M215.638 7.30295C214.488 6.6565 213.798 5.30484 215.293 3.83565C216.386 2.71906 218.227 3.60058 218.744 4.24702C219.262 4.89347 218.572 5.30484 219.032 5.59868C219.492 5.89252 219.722 6.77404 219.377 7.30295C219.036 7.82631 218.3 7.65917 217.783 7.54173L217.766 7.53802C217.249 7.42048 216.789 7.94939 215.638 7.30295Z" fill="black"/>
<path d="M226.337 4.54086C225.877 4.18825 224.266 2.54276 225.819 0.720956C227.948 -1.15961 230.421 1.13233 230.421 2.01385C230.421 2.89536 229.328 3.83565 228.753 4.54086C228.178 5.24607 226.797 4.89347 226.337 4.54086Z" fill="black"/>
<path d="M236.288 5.30484C236.288 4.71716 236.633 4.54086 236.288 3.60058C236.137 2.95413 235.368 2.95413 234.505 2.71906C233.642 2.48399 232.434 3.07167 232.147 4.24702C231.859 5.42238 232.319 6.89157 233.642 7.30295C234.965 7.71432 236.288 5.89252 236.288 5.30484Z" fill="black"/>
<path d="M221.793 9.88873C221.39 9.35982 220.47 8.59584 221.39 6.89157C221.908 6.36266 222.081 5.89252 223.403 6.30389C224.348 6.59773 225.187 8.4783 224.611 9.53612C224.036 10.5939 222.196 10.4176 221.793 9.88873Z" fill="black"/>
<path d="M226.28 7.65555C226.395 7.12664 226.51 6.95034 227.545 6.30389C228.12 5.9449 228.638 6.24513 229.271 6.30389C229.903 6.36266 230.133 7.42048 230.306 8.18446C230.478 8.94844 229.731 10.3001 229.271 10.5352C228.81 10.7702 228.063 10.5939 227.315 10.3001C226.567 10.0063 226.164 8.18446 226.28 7.65555Z" fill="black"/>
<path d="M231.801 12.2394C231.917 11.8281 231.399 10.5352 232.319 9.65366C233.124 8.77214 234.735 9.65366 235.195 10.3001C235.655 10.9465 235.425 12.7683 234.102 13.5911C232.913 14.3308 232.319 14.2963 231.801 14.0025C231.284 13.7086 231.686 12.6508 231.801 12.2394Z" fill="black"/>
<path d="M237.438 15.883C236.806 15.2954 236.346 13.4736 237.438 12.6508C238.531 11.8281 239.857 12.2997 240.372 12.6508C241.062 13.121 240.89 15.7344 240.084 16.412C239.107 17.2347 238.071 16.4707 237.438 15.883Z" fill="black"/>
<path d="M236.921 22.23C236.748 21.8186 236.058 20.4082 237.438 19.4091C238.992 18.6451 240.084 19.7617 240.717 20.4669C241.086 20.8783 241.35 22.2887 239.797 23.1702C238.244 24.0518 237.093 22.6413 236.921 22.23Z" fill="black"/>
<path d="M230.709 17.411C230.709 15.883 230.651 16.7058 231.917 15.7655C232.779 15.1275 233.93 15.1778 234.85 16.1769C235.77 17.1759 235.368 18.4688 234.85 18.939C234.444 19.3073 232.952 20.1731 232.434 19.6442C231.744 18.939 230.709 18.2667 230.709 17.411Z" fill="black"/>
<path d="M230.076 24.4631C229.443 23.6992 228.58 22.8176 230.076 21.4072C231.341 20.8195 231.341 21.4072 232.032 21.4072C232.722 21.4072 232.837 20.4669 233.93 21.6423C235.023 22.8176 234.217 24.9333 233.93 25.521C233.642 26.1086 232.492 26.0499 231.801 25.2271C231.111 24.4044 230.709 25.2271 230.076 24.4631Z" fill="black"/>
<path d="M228.925 31.6916C228.005 31.3977 227.315 30.1636 228.638 28.4593C229.515 26.8726 230.709 27.0489 231.169 27.4603C231.629 27.8717 232.814 28.8707 232.032 30.5162C231.054 32.5731 229.846 31.9854 228.925 31.6916Z" fill="black"/>
<path d="M225.187 26.7551C224.324 26.0499 224.181 24.6394 224.841 23.5229C225.502 22.4063 226.452 22.7001 227.43 23.5816C228.408 24.4631 228.638 25.2271 227.948 25.9911C227.257 26.7551 226.049 27.4603 225.187 26.7551Z" fill="black"/>
<path d="M221.678 30.8101C220.758 30.575 219.377 28.7532 220.527 27.4603C221.16 26.9314 221.448 26.5788 222.656 26.9314C223.864 27.284 224.266 28.4593 224.209 29.3409C224.151 30.2224 222.598 31.0451 221.678 30.8101Z" fill="black"/>
<path d="M213.222 25.521C212.992 24.6394 212.417 23.5816 213.452 22.5826C214.603 21.8186 214.085 21.9949 215.466 22.23C216.846 22.465 216.961 23.1115 216.904 24.1693C216.846 25.2271 216.386 25.6973 215.466 26.4612C214.545 27.2252 213.452 26.4025 213.222 25.521Z" fill="black"/>
<path d="M220.758 20.1731C219.837 20.1143 220.297 20.702 219.262 21.2309C218.687 21.6423 218.342 21.4072 218.169 22.23C217.997 23.0527 219.251 24.1693 220.182 24.3456C221.563 24.6068 222.023 23.8755 222.311 22.5826C222.598 21.2897 221.678 20.2319 220.758 20.1731Z" fill="black"/>
<path d="M223.231 18.939C223.691 18.2338 223.173 17.9987 224.209 17.2347C225.819 16.1769 226.28 17.411 227.085 17.9987C228.008 18.6724 228.178 18.939 227.948 20.4669C227.718 21.9949 225.359 20.9958 224.726 20.8783C224.094 20.7608 222.87 19.4922 223.231 18.939Z" fill="black"/>
<path d="M228.81 12.1807C228.293 11.7105 226.682 11.593 225.992 12.4157C224.899 13.356 225.302 14.2963 225.762 14.8252C226.222 15.3541 227.43 16.1769 228.81 15.3541C230.191 14.5314 229.328 12.6508 228.81 12.1807Z" fill="black"/>
<path d="M223.691 13.121C223.461 12.1219 222.311 10.829 220.527 12.1807C219.377 14.3551 220.758 16.1769 222.023 16.1769C223.288 16.1769 223.921 14.12 223.691 13.121Z" fill="black"/>
<path d="M217.651 10.5352C217.134 9.30105 215.696 8.85366 214.66 9.53612C213.855 10.0669 213.452 11.1816 213.855 12.6508C214.258 14.12 215.523 14.0025 216.559 13.6499C217.594 13.2973 218.169 11.7693 217.651 10.5352Z" fill="black"/>
<path d="M212.475 15.5892C211.918 15.2341 210.404 14.4138 209.311 16.0006C208.448 17.4698 209.541 19.4091 210.634 19.8205C211.727 20.2319 211.899 19.4091 212.647 18.939C213.395 18.4688 213.855 18.939 214.085 17.9987C214.315 17.0584 212.751 15.7655 212.475 15.5892Z" fill="black"/>
<path d="M218.974 16.412C218.744 15.1778 218.169 14.8252 216.271 16.1769C215.351 16.9996 215.466 19.8205 217.191 20.4669C218.917 21.1134 219.55 19.8205 219.722 18.939C219.895 18.0574 219.205 17.6461 218.974 16.412Z" fill="black"/>
<path d="M276.773 31H274.586V4.64062L263.812 31H261.516L250.77 4.64062V31H248.582V1.05859H251.754L262.664 28.2656L273.656 1.05859H276.773V31Z" fill="black"/>
</g>
<defs>
<clipPath id="clip0_2_24">
<rect width="277" height="32" fill="white"/>
</clipPath>
</defs>
</svg>
